<svg width="153" height="114" viewBox="0 0 153 114" fill="none" xmlns="http://www.w3.org/2000/svg">
<path d="M81.1 42H1.5L11.5 112H71.1L81.1 42Z" fill="#96E3BA" stroke="#6FD39D" stroke-width="3" stroke-linejoin="round"/>
<path d="M11.5 22L41.5 2L71.5 22L61.5 62L41.5 52L21.5 62L11.5 22Z" fill="#96E3BA" stroke="#6FD39D" stroke-width="3" stroke-linejoin="round"/>
<path d="M23.8544 69.298H30.4784L29.7424 72.748C31.2757 71.4293 33.0697 70.77 35.1244 70.77C36.8417 70.77 38.2064 71.3373 39.2184 72.472C40.2304 73.6067 40.7364 75.462 40.7364 78.038C40.7364 80.4607 40.3837 82.914 39.6784 85.398C38.9731 87.8513 37.7771 89.952 36.0904 91.7C34.4037 93.4173 32.1804 94.276 29.4204 94.276C27.4577 94.276 26.1544 93.724 25.5104 92.62L23.1184 103.844L16.1724 105.5L23.8544 69.298ZM27.9944 90.274C29.4664 90.274 30.6777 89.584 31.6284 88.204C32.6097 86.824 33.3151 85.1833 33.7444 83.282C34.2044 81.35 34.4344 79.556 34.4344 77.9C34.4344 75.3547 33.6677 74.082 32.1344 74.082C31.5824 74.082 31.0151 74.2813 30.4324 74.68C29.8804 75.0787 29.3897 75.6307 28.9604 76.336L26.2464 89.216C26.4917 89.9213 27.0744 90.274 27.9944 90.274ZM59.3466 68.47C58.3346 68.47 57.476 68.1173 56.7706 67.412C56.0653 66.7067 55.7126 65.848 55.7126 64.836C55.7126 63.824 56.0653 62.9653 56.7706 62.26C57.476 61.524 58.3346 61.156 59.3466 61.156C60.3586 61.156 61.2173 61.524 61.9226 62.26C62.6586 62.9653 63.0266 63.824 63.0266 64.836C63.0266 65.848 62.6586 66.7067 61.9226 67.412C61.2173 68.1173 60.3586 68.47 59.3466 68.47ZM47.6626 105.5C46.2213 105.5 44.964 105.025 43.8906 104.074C42.7866 103.154 42.2346 101.973 42.2346 100.532C42.2346 99.1827 42.572 98.0787 43.2466 97.22C43.9213 96.3613 44.7953 95.6867 45.8686 95.196C46.942 94.7053 48.3986 94.184 50.2386 93.632L54.9766 71H61.6466L56.0346 97.68C55.4213 100.624 54.3326 102.663 52.7686 103.798C51.2353 104.933 49.5333 105.5 47.6626 105.5ZM46.6046 101.406C47.1566 101.406 47.678 101.115 48.1686 100.532C48.6593 99.98 49.0426 99.0753 49.3186 97.818L49.9166 95.104C48.2606 95.656 46.988 96.3 46.0986 97.036C45.2093 97.772 44.7646 98.7227 44.7646 99.888C44.7646 100.256 44.9486 100.593 45.3166 100.9C45.6846 101.237 46.114 101.406 46.6046 101.406Z" fill="black"/>
<path d="M23.8544 69.298V67.298H22.2343L21.898 68.8828L23.8544 69.298ZM30.4784 69.298L32.4344 69.7153L32.9501 67.298H30.4784V69.298ZM29.7424 72.748L27.7864 72.3307L26.5487 78.1324L31.0465 74.2644L29.7424 72.748ZM39.2184 72.472L40.711 71.1408V71.1408L39.2184 72.472ZM39.6784 85.398L41.6005 85.9506L41.6023 85.9443L39.6784 85.398ZM36.0904 91.7L37.5173 93.1014L37.5235 93.0951L37.5296 93.0887L36.0904 91.7ZM25.5104 92.62L27.238 91.6123L24.6322 87.1453L23.5543 92.2031L25.5104 92.62ZM23.1184 103.844L23.5822 105.789L24.8111 105.496L25.0745 104.261L23.1184 103.844ZM16.1724 105.5L14.216 105.085L13.5594 108.179L16.6362 107.445L16.1724 105.5ZM31.6284 88.204L29.9985 87.045L29.9898 87.0571L29.9814 87.0694L31.6284 88.204ZM33.7444 83.282L31.7988 82.8188L31.7961 82.8301L31.7935 82.8415L33.7444 83.282ZM30.4324 74.68L29.303 73.0294L29.282 73.0437L29.2614 73.0586L30.4324 74.68ZM28.9604 76.336L27.252 75.2961L27.074 75.5886L27.0034 75.9236L28.9604 76.336ZM26.2464 89.216L24.2894 88.8036L24.1747 89.3478L24.3574 89.873L26.2464 89.216ZM23.8544 71.298H30.4784V67.298H23.8544V71.298ZM28.5224 68.8807L27.7864 72.3307L31.6984 73.1653L32.4344 69.7153L28.5224 68.8807ZM31.0465 74.2644C32.2107 73.2632 33.5399 72.77 35.1244 72.77V68.77C32.5996 68.77 30.3408 69.5955 28.4383 71.2316L31.0465 74.2644ZM35.1244 72.77C36.3537 72.77 37.1447 73.1516 37.7258 73.8032L40.711 71.1408C39.2681 69.523 37.3298 68.77 35.1244 68.77V72.77ZM37.7258 73.8032C38.2492 74.39 38.7364 75.6382 38.7364 78.038H42.7364C42.7364 75.2858 42.2116 72.8233 40.711 71.1408L37.7258 73.8032ZM38.7364 78.038C38.7364 80.2642 38.4126 82.5337 37.7545 84.8517L41.6023 85.9443C42.3548 83.2943 42.7364 80.6572 42.7364 78.038H38.7364ZM37.7563 84.8454C37.1364 87.0013 36.0994 88.8104 34.6512 90.3113L37.5296 93.0887C39.4548 91.0936 40.8097 88.7014 41.6005 85.9506L37.7563 84.8454ZM34.6635 90.2986C33.4089 91.576 31.7294 92.276 29.4204 92.276V96.276C32.6314 96.276 35.3985 95.2587 37.5173 93.1014L34.6635 90.2986ZM29.4204 92.276C27.7597 92.276 27.3565 91.8156 27.238 91.6123L23.7828 93.6277C24.9523 95.6324 27.1558 96.276 29.4204 96.276V92.276ZM23.5543 92.2031L21.1623 103.427L25.0745 104.261L27.4665 93.0369L23.5543 92.2031ZM22.6546 101.899L15.7086 103.555L16.6362 107.445L23.5822 105.789L22.6546 101.899ZM18.1288 105.915L25.8108 69.7132L21.898 68.8828L14.216 105.085L18.1288 105.915ZM27.9944 92.274C30.2234 92.274 32.0115 91.1734 33.2754 89.3386L29.9814 87.0694C29.344 87.9946 28.7094 88.274 27.9944 88.274V92.274ZM33.2583 89.363C34.4146 87.737 35.2163 85.8436 35.6953 83.7225L31.7935 82.8415C31.4138 84.5231 30.8049 85.911 29.9985 87.045L33.2583 89.363ZM35.69 83.7452C36.1792 81.6905 36.4344 79.7393 36.4344 77.9H32.4344C32.4344 79.3727 32.2296 81.0095 31.7988 82.8188L35.69 83.7452ZM36.4344 77.9C36.4344 76.4918 36.234 75.1024 35.5726 74.0045C34.8134 72.7443 33.5748 72.082 32.1344 72.082V76.082C32.2358 76.082 32.2272 76.101 32.1723 76.0706C32.1145 76.0386 32.1115 76.0109 32.1462 76.0685C32.2515 76.2433 32.4344 76.7629 32.4344 77.9H36.4344ZM32.1344 72.082C31.0802 72.082 30.1258 72.4664 29.303 73.0294L31.5618 76.3306C31.9043 76.0962 32.0846 76.082 32.1344 76.082V72.082ZM29.2614 73.0586C28.4526 73.6428 27.7912 74.4103 27.252 75.2961L30.6688 77.3759C30.9883 76.851 31.3082 76.5145 31.6034 76.3014L29.2614 73.0586ZM27.0034 75.9236L24.2894 88.8036L28.2034 89.6284L30.9174 76.7484L27.0034 75.9236ZM24.3574 89.873C24.6173 90.6203 25.1027 91.2792 25.8318 91.7205C26.5267 92.1411 27.2931 92.274 27.9944 92.274V88.274C27.7757 88.274 27.7908 88.2306 27.903 88.2985C27.9617 88.334 28.0207 88.385 28.0687 88.4463C28.115 88.5055 28.1325 88.5505 28.1354 88.559L24.3574 89.873ZM56.7706 62.26L58.1848 63.6742L58.1999 63.6592L58.2146 63.6438L56.7706 62.26ZM61.9226 62.26L60.4787 63.6438L60.5081 63.6745L60.5388 63.704L61.9226 62.26ZM61.9226 67.412L60.5388 65.968L60.5235 65.9827L60.5084 65.9978L61.9226 67.412ZM43.8906 104.074L45.2167 102.577L45.1941 102.557L45.171 102.538L43.8906 104.074ZM43.2466 97.22L41.674 95.9844L43.2466 97.22ZM45.8686 95.196L45.0371 93.3771L45.8686 95.196ZM50.2386 93.632L50.8133 95.5477L51.9525 95.2059L52.1962 94.0418L50.2386 93.632ZM54.9766 71V69H53.352L53.0191 70.5902L54.9766 71ZM61.6466 71L63.6038 71.4117L64.1111 69H61.6466V71ZM56.0346 97.68L54.0775 97.2683L54.0767 97.2721L56.0346 97.68ZM52.7686 103.798L51.5942 102.179L51.5865 102.185L51.5789 102.19L52.7686 103.798ZM48.1686 100.532L46.6738 99.2033L46.656 99.2233L46.6388 99.2437L48.1686 100.532ZM49.3186 97.818L47.3655 97.3876L47.3651 97.3892L49.3186 97.818ZM49.9166 95.104L51.8698 95.5344L52.6283 92.0919L49.2842 93.2066L49.9166 95.104ZM46.0986 97.036L47.3738 98.5768L46.0986 97.036ZM45.3166 100.9L46.6681 99.4257L46.6333 99.3938L46.597 99.3636L45.3166 100.9ZM59.3466 66.47C58.8564 66.47 58.509 66.322 58.1848 65.9978L55.3564 68.8262C56.4429 69.9127 57.8129 70.47 59.3466 70.47V66.47ZM58.1848 65.9978C57.8607 65.6736 57.7126 65.3262 57.7126 64.836H53.7126C53.7126 66.3698 54.2699 67.7397 55.3564 68.8262L58.1848 65.9978ZM57.7126 64.836C57.7126 64.3458 57.8607 63.9984 58.1848 63.6742L55.3564 60.8458C54.2699 61.9323 53.7126 63.3022 53.7126 64.836H57.7126ZM58.2146 63.6438C58.5458 63.2982 58.8843 63.156 59.3466 63.156V59.156C57.7849 59.156 56.4061 59.7498 55.3267 60.8762L58.2146 63.6438ZM59.3466 63.156C59.8089 63.156 60.1474 63.2982 60.4787 63.6438L63.3666 60.8762C62.2872 59.7498 60.9083 59.156 59.3466 59.156V63.156ZM60.5388 63.704C60.8845 64.0352 61.0266 64.3737 61.0266 64.836H65.0266C65.0266 63.2743 64.4328 61.8954 63.3064 60.816L60.5388 63.704ZM61.0266 64.836C61.0266 65.2983 60.8845 65.6368 60.5388 65.968L63.3064 68.856C64.4328 67.7765 65.0266 66.3977 65.0266 64.836H61.0266ZM60.5084 65.9978C60.1842 66.322 59.8369 66.47 59.3466 66.47V70.47C60.8804 70.47 62.2504 69.9127 63.3368 68.8262L60.5084 65.9978ZM47.6626 103.5C46.7071 103.5 45.9222 103.202 45.2167 102.577L42.5646 105.571C44.0058 106.848 45.7355 107.5 47.6626 107.5V103.5ZM45.171 102.538C44.5245 101.999 44.2346 101.382 44.2346 100.532H40.2346C40.2346 102.565 41.0487 104.309 42.6103 105.61L45.171 102.538ZM44.2346 100.532C44.2346 99.5226 44.4816 98.8854 44.8193 98.4556L41.674 95.9844C40.6623 97.272 40.2346 98.8428 40.2346 100.532H44.2346ZM44.8193 98.4556C45.2813 97.8676 45.8929 97.384 46.7002 97.0149L45.0371 93.3771C43.6977 93.9893 42.5613 94.855 41.674 95.9844L44.8193 98.4556ZM46.7002 97.0149C47.655 96.5784 49.014 96.0875 50.8133 95.5477L49.6639 91.7163C47.7833 92.2805 46.2289 92.8322 45.0371 93.3771L46.7002 97.0149ZM52.1962 94.0418L56.9342 71.4098L53.0191 70.5902L48.2811 93.2222L52.1962 94.0418ZM54.9766 73H61.6466V69H54.9766V73ZM59.6895 70.5883L54.0775 97.2683L57.9918 98.0917L63.6038 71.4117L59.6895 70.5883ZM54.0767 97.2721C53.5106 99.9892 52.5826 101.462 51.5942 102.179L53.9431 105.417C56.0827 103.865 57.332 101.259 57.9926 98.0879L54.0767 97.2721ZM51.5789 102.19C50.3826 103.076 49.096 103.5 47.6626 103.5V107.5C49.9706 107.5 52.088 106.79 53.9583 105.406L51.5789 102.19ZM46.6046 103.406C47.9471 103.406 48.9793 102.674 49.6985 101.82L46.6388 99.2437C46.5751 99.3194 46.524 99.3694 46.4876 99.4007C46.4516 99.4319 46.4332 99.4421 46.434 99.4416C46.4357 99.4407 46.4545 99.4306 46.489 99.4212C46.5243 99.4116 46.5644 99.406 46.6046 99.406V103.406ZM49.6635 101.861C50.4931 100.927 50.97 99.6229 51.2721 98.2468L47.3651 97.3892C47.1152 98.5277 46.8255 99.0327 46.6738 99.2033L49.6635 101.861ZM51.2718 98.2484L51.8698 95.5344L47.9635 94.6736L47.3655 97.3876L51.2718 98.2484ZM49.2842 93.2066C47.5018 93.8008 45.9747 94.5425 44.8235 95.4952L47.3738 98.5768C48.0013 98.0575 49.0195 97.5112 50.5491 97.0014L49.2842 93.2066ZM44.8235 95.4952C43.47 96.6153 42.7646 98.1333 42.7646 99.888H46.7646C46.7646 99.312 46.9486 98.9287 47.3738 98.5768L44.8235 95.4952ZM42.7646 99.888C42.7646 101.018 43.36 101.873 44.0363 102.436L46.597 99.3636C46.5605 99.3331 46.6041 99.3597 46.6584 99.4593C46.7193 99.571 46.7646 99.7224 46.7646 99.888H42.7646ZM43.9652 102.374C44.6949 103.043 45.604 103.406 46.6046 103.406V99.406C46.597 99.406 46.5991 99.4054 46.6088 99.4072C46.6187 99.409 46.6318 99.4124 46.6459 99.418C46.6601 99.4236 46.6703 99.4292 46.6758 99.4327C46.681 99.436 46.6782 99.435 46.6681 99.4257L43.9652 102.374Z" fill="white"/>
</svg>
